<svg xmlns="http://www.w3.org/2000/svg" viewBox="0 0 669.08 158.37">
  <g data-name="Layer 2">
    <g data-name="Layer 1">
      <path d="M203.5 17.91a110 110 0 0 1 39.42-14.82c40.24-7.24 78.68-1.92 114.71 17.78 19.75 10.8 35.76 25.6 46.42 46.57 2.71-4.1 5.4-7.68 7.54-11.57 1.82-3.28 4.18-4.5 7.8-4a63.67 63.67 0 0 0 7.13 0c-.95 1.63-1.39 2.52-2 3.33-4.64 6.69-9.17 13.45-14 20a14.09 14.09 0 0 0-3 9.6c.23 5.34.06 10.7.06 16.26h-10.4c0-5-.26-10 .08-15 .33-4.79-1.12-8.8-3.47-12.86-20.33-35.1-51.36-55.37-90.11-64.52-31.16-7.35-62-6-92.07 5.69-1.45.57-2.86 1.22-4.28 1.84ZM571.73 64.88V101h-9.84V52.11c4.56 0 9.09-.13 13.59.12.81.05 1.89 1.54 2.25 2.57 3.62 10.51 7.12 21 10.65 31.58.18.53.42 1 .94 2.36 1.07-3 1.91-5.27 2.68-7.56 2.91-8.73 5.88-17.44 8.66-26.22.7-2.2 1.72-3 4-2.92 3.92.19 7.85.05 12 .05V101H607V65.83c-.55 1.34-.94 2.17-1.23 3-3.22 9.76-6.5 19.5-9.6 29.3-.73 2.28-1.7 3.19-4.25 3.15-7.89-.13-7.89 0-10.42-7.58q-4.37-13.1-8.77-26.18c-.32-.82-.64-1.66-1-2.64ZM94.26 76.83c0 1.56.13 3.13 0 4.66-1.41 13.58-9.14 20.51-22.83 20.58h-4.3C55 101.7 47.7 95.4 46.11 83.31a49.75 49.75 0 0 1-.2-12.84c1.68-12.4 8.1-18.34 20.61-19.24a45 45 0 0 1 11.76.77c9.81 1.91 15.31 9.2 16 20.57.09 1.43 0 2.87 0 4.3Zm-11.21-.37h.23A75.21 75.21 0 0 0 82 68.3c-1.53-5.68-5.61-8.57-11.7-8.65C64 59.57 59.65 62.34 58 68a29.74 29.74 0 0 0 .49 18.35A10.09 10.09 0 0 0 65.93 93c8.76 2.3 15.53-2.16 16.81-11.2.26-1.74.26-3.55.31-5.34Z"/>
      <path d="M378.15 52.62V61h-18.06c-2.88 0-5.76-.06-8.62.09-4.44.23-6.44 2.2-6.42 6.06 0 3.67 1.92 5.27 6.5 5.34 5.39.08 10.78 0 16.16.16 8.58.33 12.57 4.19 12.92 12.18.43 9.59-3.27 15.25-11.74 15.75-10.71.62-21.49.15-32.55.15v-8.6h12.35c5 0 10.06.07 15.09-.07 4-.12 5.88-1.88 6-5.22.07-3.52-1.82-5.42-6-5.56-4.79-.16-9.58 0-14.37-.07-12.85-.14-18.88-9.21-14.23-21.21 1.7-4.38 5.2-7 9.49-7.21 11.08-.46 22.19-.17 33.48-.17ZM666.62 52.51V61H649c-3 0-6-.07-9 .07-4.49.22-6.86 2.5-6.74 6.27.1 3.37 2.36 5.1 6.85 5.15 5.39.07 10.79 0 16.17.17 8.55.35 12.48 4.37 12.79 12.74.34 9-3.54 14.72-11.66 15.17-10.83.6-21.72.15-32.81.15v-8.59h22.77c1.55 0 3.12.05 4.67 0 4.18-.23 6.17-2 6.12-5.49s-2.06-5.2-6.29-5.35c-3.35-.11-6.71 0-10.06 0h-4c-14.93 0-17.11-9.9-14.64-20.14a10.71 10.71 0 0 1 10.48-8.44c10.89-.5 21.77-.2 32.97-.2ZM98.92 100.68v-8.36c1.31-.06 2.57-.18 3.82-.18 7.91 0 15.81 0 23.71-.06 2.78 0 5.31-.72 6-4 .76-3.63-.93-6.08-4.59-6.71a19.26 19.26 0 0 0-3.22-.17h-12.58C99.4 81 93.27 71.6 98.09 59.8a11.11 11.11 0 0 1 10.33-7.21c10.73-.37 21.49-.12 32.47-.12V61h-15.32c-3.83 0-7.67-.09-11.49.11-4.33.23-6.29 2.38-6.16 6.28.11 3.45 2 5 6.38 5.1 5.51.09 11-.07 16.52.17 8.23.35 12.26 4.23 12.57 11.71.42 10.18-3 15.68-11.54 16.19-10.85.6-21.7.12-32.93.12ZM426.52 100.73v-8.6h3.81c7.78 0 15.57.05 23.35 0 4.36-.06 6.15-1.7 6.2-5.24.05-3.88-1.61-5.48-6.21-5.59-4.91-.12-9.82.06-14.73-.06-12.7-.32-19-11.7-12.68-22.85 2.21-3.9 5.95-5.36 10.14-5.9a43.62 43.62 0 0 1 5.37-.34h26.46V61h-23.87a25.81 25.81 0 0 0-3.94.2c-3.57.57-5.24 2.66-5.11 6.19.11 3.2 1.95 5 5.7 5.07 5.62.16 11.26 0 16.88.19 8.9.34 12.7 4.18 13 12.8.34 9.2-3.48 14.68-12 15.16-10.59.57-21.26.12-32.37.12ZM0 52.16h26.61a26.67 26.67 0 0 1 6 .8c7.08 1.72 11 7.46 10.75 15.72-.19 8-4.3 13.42-11.6 14.61a91 91 0 0 1-11.45.75c-3.22.12-6.44 0-10 0V101H0Zm10.41 9v13.69c5.27 0 10.38.28 15.45-.09 4.05-.31 5.91-2.84 5.92-6.73s-1.78-6.46-5.89-6.76c-5.07-.37-10.19-.08-15.48-.08ZM554.41 92.37v9.29c-8.86-.48-17.67-.12-26.13-1.65s-12.73-8.37-13.57-16.58a57.7 57.7 0 0 1 .73-16.38c1.5-8.08 6.85-13.44 15-14.26 7.79-.78 15.72-.17 23.85-.17v8.11h-9.53c-2.87 0-5.76-.09-8.62.12-6.64.5-9.62 3.8-9.92 11h28.1v8.57h-28c-.77 7.7 2.7 11.67 10.22 11.88 5.87.2 11.72.07 17.87.07ZM311.57 52.52v8.21h-8.48c-3.71.06-7.45-.09-11.13.33-5.63.65-8.59 4.65-8.21 10.82h27.75v8.68h-27.61c-1.28 6.44 1.62 10.94 7.69 11.48 5.23.46 10.53.24 15.79.31h4.12v9.22c-8.58-.39-17.13-.09-25.44-1.37-7.85-1.22-12.68-7.16-13.69-14.83a63.21 63.21 0 0 1 .52-18.82c1.42-8.17 7.22-13.12 15.37-13.88 7.58-.67 15.28-.15 23.32-.15ZM221.23 52.11a97.71 97.71 0 0 1 10 .12 4.39 4.39 0 0 1 2.77 2.48c4.11 9.81 8.06 19.69 12.06 29.54.43 1.06.94 2.08 1.69 3.72 4.55-11 8.95-21.29 13.05-31.71 1.2-3.08 2.66-4.75 6.2-4.26a47.68 47.68 0 0 0 6.61.05c-.49 1.39-.81 2.46-1.24 3.48-5.84 14-11.78 28-17.49 42-1.1 2.72-2.49 3.47-5.41 3.78-5.47.58-7.88-1.59-9.86-6.54-5.25-13.01-11.14-25.83-16.77-38.77-.46-1.07-.84-2.15-1.61-3.89ZM487.43 60.79h-15.58v-8.41h42.3v8.13h-15.79V101h-10.93ZM205.8 52.33v8.35h-15.5V101h-10.9V60.79h-15.68v-8.46ZM437.54 157.9q-4.52-15-9.1-30.35c6.74-.75 6.73-.75 8.2 5.08 1.29 5.1 2.6 10.19 4.18 16.35 1.19-3.61 2.11-6.32 3-9 1-3.31 1.81-6.73 3.13-9.91a4.94 4.94 0 0 1 3.43-2.58c1-.08 2.66 1.4 3.05 2.52 2.09 6.07 3.88 12.25 6 19.14 1.6-6.11 3-11.42 4.36-16.74 1.42-5.5 1.41-5.5 7.71-4.82l-9 30.14c-5.47 1.18-5.54 1.14-7.06-3.9-1.69-5.58-3.41-11.14-5.39-17.62-2 6.34-3.69 11.79-5.36 17.26-1.58 4.97-1.56 4.98-7.15 4.43ZM148 52.3h10.26V101H148ZM219.91 52.52V101h-10.33V52.52ZM353.79 142.65c0-9.09 6.31-15.46 15.26-15.4 8.74 0 15 6.4 15.05 15.34s-6.28 15.56-15.16 15.58-15.15-6.33-15.15-15.52Zm24-.07c0-6.37-3.44-10.31-8.9-10.3s-8.8 4-8.84 10.38 3.51 10.58 9.1 10.47c5.35-.13 8.64-4.13 8.61-10.55ZM154.83 158v-30.39c4.89 0 9.83-.58 14.57.13 7.5 1.12 12 7.42 11.84 15.25-.17 8-5 14-12.73 14.95-4.45.53-9.01.06-13.68.06Zm6.33-26v21.4c4.6.13 9.2 1 11.89-3.55a13.63 13.63 0 0 0 .18-14c-2.63-4.85-7.32-4.1-12.07-3.85ZM280 158.12v-30.49c5 0 10-.59 14.74.14 7.56 1.17 12.09 7.83 11.63 15.74-.48 8.09-5.54 13.87-13.2 14.54-4.27.38-8.58.07-13.17.07Zm6.21-4.78c4.88.36 9.42 1 12.24-3.72 2.46-4.1 2.15-11.16-.61-14.68-3.1-3.95-7.29-3.21-11.63-2.78ZM500.34 126.63l11.4 31c-5.58 1.23-6 1.11-7.58-4-.65-2.07-1.64-2.84-3.8-2.7-2.73.18-5.48 0-8.59 0-1.52 3.74-1.87 9.33-8.71 6.74 3.53-9.6 6.91-19.39 10.9-28.93.56-1.31 4.12-1.4 6.38-2.11Zm-2.92 6.6-4.23 12.89h8.46ZM214.59 127.43c6.49-.4 6.47-.4 8.24 5.11 1.84 5.74 3.7 11.46 5.91 18.28 2.2-6.81 4.07-12.56 5.91-18.32s1.79-5.67 8.13-5c-2.34 6.45-4.65 12.82-7 19.18-1.07 2.92-2.28 5.79-3.23 8.74-.63 1.95-1.53 2.85-3.77 2.79s-3.15-.65-3.88-2.69c-3.3-9.29-6.79-18.52-10.31-28.09ZM327.34 153.58h12.34l.2 4.33h-18.8v-30.49h18.55v4.28h-12.3v8.4h9.46l.22 4.52h-9.67ZM126.62 153.53H139V158h-18.5v-30.51H139v4.31h-12.41v8.39h9.51v4.52h-9.48ZM204.67 28.39c-4.53 1.26-8 2.07-11.38 3.24a5 5 0 0 0-2.71 2.68c-1.18 3.36-2 6.86-3.24 11.37-1.18-4.23-2.21-7.49-3-10.8-.45-2-1.27-3-3.4-3.48-3.36-.68-6.64-1.81-10.84-3 4.24-1.2 7.69-2 10.95-3.2a6 6 0 0 0 3.13-3.2c1.21-3.19 1.93-6.56 3.15-10.91 1.24 4.47 2 7.9 3.2 11.18a5.44 5.44 0 0 0 2.93 2.88c3.34 1.24 6.84 2.03 11.21 3.24ZM89.31 127.36H95V153h10.8v5H89.31ZM541.71 158h-16.57v-30.57H531v25.69h10.76ZM556.13 127.36h5.65V153h10.8v5h-16.45ZM262.57 158h-5.7v-30.46h5.7ZM154.85 46.29c-.55-7.09-4.2-10.29-11-10.64 6.2-1.15 10.78-3.52 10.87-11 .95 6.7 4.09 10.53 11.09 10.77-6.39.92-10.55 3.64-10.96 10.87Z"/>
    </g>
  </g>
</svg>
